<?xml version="1.0" encoding="UTF-8"?>
<!DOCTYPE svg PUBLIC "-//W3C//DTD SVG 1.1//EN" "http://www.w3.org/Graphics/SVG/1.1/DTD/svg11.dtd">
<!-- Creator: CorelDRAW X7 -->
<svg xmlns="http://www.w3.org/2000/svg" xml:space="preserve" width="25.3998mm" height="25.3998mm" version="1.1" style="shape-rendering:geometricPrecision; text-rendering:geometricPrecision; image-rendering:optimizeQuality; fill-rule:evenodd; clip-rule:evenodd"
viewBox="0 0 2540 2540"
 xmlns:xlink="http://www.w3.org/1999/xlink">
 <defs>
  <style type="text/css">
   <![CDATA[
    .fil0 {fill:none}
    .fil2 {fill:#FEFEFE}
    .fil3 {fill:#1D1819}
    .fil1 {fill:#02AFD9}
   ]]>
  </style>
 </defs>
 <g id="Layer_x0020_1">
  <metadata id="CorelCorpID_0Corel-Layer"/>
  <rect class="fil0" width="2540" height="2540"/>
  <g id="_1443026684752">
   <circle class="fil1" cx="393" cy="1270" r="263"/>
   <path class="fil2" d="M241 1329c3,43 30,76 80,79 48,2 95,2 143,0 44,-3 77,-36 80,-79 2,-22 3,-44 2,-66l0 0 0 0c-11,-60 -61,-62 -65,-62l-1 0 0 0 0 0 -168 0c-6,0 -11,-5 -11,-11l0 0c0,-6 5,-10 11,-10l169 0c-2,-40 -46,-48 -67,-49l-11 0 0 0c-27,-1 -55,0 -82,2 -51,4 -77,35 -80,79 -3,39 -3,78 0,117zm253 -23l0 15c0,5 -4,9 -10,9l0 0c-5,0 -9,-4 -9,-9l0 -15c-5,-3 -8,-7 -8,-13 0,-8 8,-15 17,-15 9,0 17,7 17,15 0,6 -3,10 -7,13z"/>
  </g>
  <path class="fil3" d="M1982 1246l0 48c0,0 -17,32 -73,39 -56,8 -56,-27 -52,-36 4,-9 17,-21 64,-29 49,-8 61,-22 61,-22zm66 -46l0 186 -61 0 0 -30c-20,18 -48,35 -87,37 -122,3 -169,-132 -21,-172 35,-10 69,-7 87,-16 12,-7 15,-18 7,-28 -30,-40 -102,-24 -122,31l-61 -15c16,-61 65,-88 124,-94 63,-6 134,28 134,101zm-1155 -33c-44,0 -80,36 -80,81 0,44 36,80 80,80 44,0 80,-36 80,-80 0,-45 -36,-81 -80,-81zm158 -59l-78 0 0 30c-24,-21 -56,-34 -92,-34 -78,0 -142,65 -142,145 0,81 64,146 142,146 36,0 68,-13 92,-34l0 27c0,43 -31,77 -74,77 -36,0 -65,-7 -89,-35l-50 45c41,44 82,58 140,58 84,0 151,-57 151,-153l0 -42 0 -230zm1359 -5l-82 0 -82 179 -94 -179 -83 0 136 255 -72 148c0,0 83,0 83,0 0,0 194,-403 194,-403zm-807 64c45,0 81,36 81,81 0,44 -36,80 -81,80 -44,0 -80,-36 -80,-80 0,-45 36,-81 80,-81zm-157 -59l77 0 0 30c25,-21 57,-34 92,-34 78,0 142,65 142,145 0,81 -64,146 -142,146 -35,0 -67,-13 -92,-34l0 145 -77 0 0 -398zm-206 57c49,0 88,38 88,84 0,47 -39,85 -88,85 -48,0 -87,-38 -87,-85 0,-46 39,-84 87,-84zm0 -67c86,0 156,68 156,151 0,84 -70,152 -156,152 -86,0 -156,-68 -156,-152 0,-83 70,-151 156,-151z"/>
 </g>
</svg>
